<?xml version="1.0" encoding="utf-8"?>
<!-- Generator: Adobe Illustrator 22.0.1, SVG Export Plug-In . SVG Version: 6.00 Build 0)  -->
<svg version="1.1" id="Layer_1" xmlns="http://www.w3.org/2000/svg" xmlns:xlink="http://www.w3.org/1999/xlink" x="0px" y="0px"
	 viewBox="0 0 196 74.5" style="enable-background:new 0 0 196 74.5;" xml:space="preserve">
<style type="text/css">
	.st0{fill:#14328C;}
	.st1{fill:#FFFFFF;}
</style>
<g>
	<path class="st0" d="M9.3,0.6c-0.9,0-8.8,0.3-8.8,8.8v55c0,0.9,0.3,8.8,8.8,8.8h176.4c0.9,0,8.8-0.3,8.8-8.8v-55
		c0-0.9-0.3-8.8-8.8-8.8H9.3z"/>
	<path class="st1" d="M29,12.9c1.8,0.1,3.6,0.2,5.6,0.2c1.9,0,3.8-0.1,5.7-0.2l-1.4,3.7c2.9-2.5,7.5-4.1,13.2-4.1
		c12.2,0,14.8,4.9,12.7,10.3c-2.9,7.6-12.5,11-21.2,11c-5.7,0-8.3-1.4-9.7-3l-5.2,13.4c-1.9-0.1-3.8-0.2-5.8-0.2c-2,0-4,0.1-5.9,0.2
		L29,12.9z M51.9,23.2c1.9-4.8,1.3-8-4.3-8c-7.4,0-10.4,5.5-11.4,8.2C35.3,26,33.9,31,41,31C46.6,30.7,50.2,27.7,51.9,23.2"/>
	<path class="st1" d="M102.4,33.4c-1.8-0.1-3.6-0.2-5.5-0.2c-1.9,0-3.9,0.1-5.8,0.2l1.2-3.1c-4.8,2.1-8.3,3.5-14.2,3.5
		c-4.3,0-8.5-0.8-10.3-2.6c-1.9-1.8-0.5-4.4,0.3-6.6l4.6-11.7c1.9,0.1,3.8,0.2,5.8,0.2c2,0,3.9-0.1,5.9-0.2l-4.5,11.7
		c-0.4,1-0.9,2.6-0.4,3.5c0.6,1.3,2.2,2.2,5.2,2.2c7.4,0,8.8-3.7,9.8-6.4l4.3-11.1c1.9,0.1,3.8,0.2,5.8,0.2c2,0,3.9-0.1,5.9-0.2
		L102.4,33.4z"/>
	<path class="st1" d="M118.2,12.9c1.9,0.1,3.8,0.2,5.8,0.2c2,0,3.9-0.1,5.9-0.2l-2,5.2c3-3.1,7.7-5.6,16-5.6c-1.2,2-2.2,3.9-2.7,5.8
		l-0.9,0.3c-0.9-0.4-2.8-0.6-4.1-0.6c-3.7,0-7.2,1-8.9,2.8c-1.2,1.2-1.9,3.6-2.4,4.9l-3,7.7c-1.9-0.1-3.8-0.2-5.8-0.2
		c-1.9,0-3.9,0.1-5.9,0.2L118.2,12.9z"/>
	<path class="st1" d="M154,23.2c-1.9,4.4-0.3,7.9,8.7,7.9c3.5,0,7.6-0.8,10.7-1.9l0.9,0.4l-2.8,2.4c-3.8,1.2-8.7,1.9-12.9,1.9
		c-14.1,0-19.6-4.2-16.9-11.1c2.3-5.9,11.1-10.2,23.4-10.2c13.3,0,16.5,4.6,13.2,10.7H154z M167.3,21.1c0.9-2.2,2.1-6.7-3-6.7
		c-6.2,0-8.5,4.5-9.6,6.7H167.3z"/>
	<path class="st1" d="M17.6,54.9c-0.6,1.5-0.1,2.8,2.6,2.8c1,0,2.3-0.3,3.2-0.7l0.3,0.1l-0.8,0.8c-1.2,0.4-2.6,0.7-3.9,0.7
		c-4.2,0-5.9-1.5-5.1-3.9c0.7-2.1,3.3-3.6,7-3.6c4,0,5,1.6,4,3.8H17.6z M21.6,54.1c0.3-0.8,0.6-2.4-0.9-2.4c-1.9,0-2.6,1.6-2.9,2.4
		H21.6z"/>
	<path class="st1" d="M28.3,51.2c0.5,0,1.1,0.1,1.7,0.1c0.6,0,1.1,0,1.7-0.1l-0.4,1.1c1.2-0.7,2.8-1.2,4.3-1.2c3.2,0,3.6,1.2,3,3
		l-1.4,4.4c-0.6,0-1.2-0.1-1.7-0.1c-0.6,0-1.2,0-1.8,0.1l1.2-3.7c0.5-1.4,0.5-2.4-1.3-2.4c-2.2,0-2.8,1.8-3.1,2.7l-1.1,3.4
		c-0.6,0-1.1-0.1-1.7-0.1c-0.6,0-1.2,0-1.8,0.1L28.3,51.2z"/>
	<path class="st1" d="M51.6,53.3H51c0.1-0.8-0.6-1.6-2.1-1.6c-2.4,0-3.7,1.8-4.1,2.9c-0.6,1.8,0.1,3,2.9,3c0.9,0,2.1-0.3,2.9-0.7
		l0.4,0.2L50,58c-0.8,0.4-2.7,0.6-3.6,0.6c-3.9,0-6.2-1.3-5.5-3.6c0.8-2.4,4-3.9,8-3.9c1.5,0,3.1,0.2,4.2,0.7L51.6,53.3z"/>
	<path class="st1" d="M62.8,57.2c-0.2,0.6,0,0.7,1.1,0.7l-0.1,0.3c-0.7,0.2-1.7,0.4-2.4,0.4c-1.2,0-2-0.4-2.2-1.1
		c-0.9,0.7-2.3,1.1-3.6,1.1c-2.1,0-3.4-0.7-3-2c0.5-1.4,2.1-1.8,5.4-2.3c0.7-0.1,1.4-0.2,2-0.4c0.4-0.2,0.5-0.4,0.6-0.6
		c0.2-0.7-0.8-1.3-2-1.3c-1.6,0-3.2,0.7-3.4,0.9H55l0-0.9c1.4-0.7,3.4-1,5-1c2.1,0,4.7,0.5,4.2,2L62.8,57.2z M60.2,54.6
		c-0.7,0.2-1.9,0.3-2.7,0.6c-0.8,0.3-1.1,0.8-1.2,1.2c-0.2,0.6-0.1,1.2,1,1.2c1.6,0,2.2-0.9,2.5-1.6L60.2,54.6z"/>
	<path class="st1" d="M67.9,51.2c0.5,0,1.1,0.1,1.7,0.1c0.6,0,1.1,0,1.7-0.1l-0.4,1.3c0.9-0.9,2.3-1.5,4-1.5c3.7,0,4.4,1.7,3.8,3.6
		c-0.9,2.7-3.8,3.9-6.4,3.9c-1.7,0-2.5-0.5-2.9-1.1l-1.6,4.7c-0.6,0-1.1-0.1-1.7-0.1c-0.6,0-1.2,0-1.8,0.1L67.9,51.2z M74.8,54.9
		c0.6-1.7,0.4-2.8-1.3-2.8c-2.2,0-3.1,2-3.4,2.9c-0.3,0.9-0.7,2.7,1.4,2.7C73.2,57.5,74.3,56.5,74.8,54.9"/>
	<path class="st1" d="M80.7,56.6c0.2,0.7,1.1,1.3,2.5,1.3c0.9,0,2.1-0.4,2.3-0.9c0.5-1.4-5.6-0.9-4.7-3.5c0.5-1.5,2.8-2.4,5.2-2.4
		c1.3,0,2.6,0.2,3.5,0.7c-0.4,0.4-0.7,0.9-1,1.3h-0.7c0-0.6-0.9-1.3-2-1.3c-0.9,0-2,0.3-2.2,0.9c-0.5,1.5,5.7,0.7,4.8,3.5
		c-0.5,1.4-2.6,2.4-5.7,2.4c-1.2,0-2.4-0.2-3.3-0.6c0.3-0.5,0.6-0.9,0.9-1.4H80.7z"/>
	<path class="st1" d="M100.8,58.5c-0.6,0-1.1-0.1-1.7-0.1c-0.6,0-1.2,0-1.7,0.1l0.4-1.1c-1.4,0.7-2.5,1.2-4.3,1.2
		c-1.3,0-2.6-0.3-3.1-0.9c-0.6-0.6-0.1-1.6,0.1-2.3l1.4-4.2c0.6,0,1.1,0.1,1.7,0.1s1.2,0,1.8-0.1L94,55.3c-0.1,0.3-0.3,0.9-0.1,1.2
		c0.2,0.5,0.7,0.8,1.6,0.8c2.2,0,2.6-1.3,3-2.2l1.3-3.9c0.6,0,1.2,0.1,1.7,0.1c0.6,0,1.2,0,1.8-0.1L100.8,58.5z"/>
	<path class="st1" d="M107.6,58.5c-0.6,0-1.1-0.1-1.7-0.1c-0.6,0-1.2,0-1.8,0.1l3.8-11.4c0.6,0,1.1,0.1,1.7,0.1c0.6,0,1.2,0,1.8-0.1
		L107.6,58.5z"/>
	<path class="st1" d="M120.8,57.2c-0.2,0.6,0,0.7,1.1,0.7l-0.1,0.3c-0.7,0.2-1.7,0.4-2.4,0.4c-1.2,0-2-0.4-2.2-1.1
		c-0.9,0.7-2.3,1.1-3.6,1.1c-2.1,0-3.4-0.7-3-2c0.5-1.4,2.1-1.8,5.4-2.3c0.7-0.1,1.4-0.2,2-0.4c0.4-0.2,0.5-0.4,0.6-0.6
		c0.2-0.7-0.8-1.3-2-1.3c-1.6,0-3.2,0.7-3.4,0.9H113l0-0.9c1.4-0.7,3.4-1,5-1c2.1,0,4.7,0.5,4.2,2L120.8,57.2z M118.2,54.6
		c-0.7,0.2-1.9,0.3-2.7,0.6c-0.8,0.3-1.1,0.8-1.2,1.2c-0.2,0.6-0.1,1.2,1,1.2c1.6,0,2.2-0.9,2.5-1.6L118.2,54.6z"/>
	<path class="st1" d="M128.4,56.4c-0.3,1-0.4,1.6,2,1.2l-0.2,0.6c-1,0.2-2,0.3-2.8,0.3c-2.6,0-2.9-1-2.4-2.4l1.3-4h-1.7
		c0.2-0.3,0.3-0.6,0.3-1h1.7l0.6-1.7c1.2-0.3,2.5-0.6,3.8-0.9l-0.9,2.6h2.2c-0.2,0.3-0.3,0.6-0.3,1h-2.2L128.4,56.4z"/>
	<path class="st1" d="M134.8,51.2c0.6,0,1.1,0.1,1.7,0.1c0.6,0,1.2,0,1.8-0.1l-2.4,7.3c-0.6,0-1.1-0.1-1.7-0.1c-0.6,0-1.2,0-1.8,0.1
		L134.8,51.2z M137.8,47.3c1.1,0,1.9,0.5,1.6,1.2c-0.2,0.6-1.3,1.2-2.4,1.2c-1.1,0-1.8-0.6-1.6-1.2
		C135.6,47.8,136.7,47.3,137.8,47.3"/>
	<path class="st1" d="M139.6,55c0.8-2.4,3.6-3.9,7.5-3.9c3.9,0,5.8,1.4,5.1,3.6c-0.7,2.3-3.6,3.9-7.6,3.9
		C140.9,58.6,138.9,57.2,139.6,55 M143.4,55c-0.3,1-0.8,3,1.4,3c2,0,3.1-1.9,3.7-3.5c0.5-1.5,0.2-2.7-1.5-2.7
		C145,51.8,144,53.2,143.4,55"/>
	<path class="st1" d="M155.6,51.2c0.5,0,1.1,0.1,1.7,0.1c0.6,0,1.1,0,1.7-0.1l-0.4,1.1c1.3-0.7,2.8-1.2,4.3-1.2c3.2,0,3.6,1.2,3,3
		l-1.5,4.4c-0.6,0-1.1-0.1-1.7-0.1c-0.6,0-1.2,0-1.8,0.1l1.2-3.7c0.5-1.4,0.5-2.4-1.3-2.4c-2.2,0-2.8,1.8-3.1,2.7l-1.1,3.4
		c-0.6,0-1.1-0.1-1.7-0.1c-0.6,0-1.2,0-1.8,0.1L155.6,51.2z"/>
	<path class="st1" d="M168.4,56.6c0.2,0.7,1.1,1.3,2.5,1.3c0.9,0,2.1-0.4,2.3-0.9c0.5-1.4-5.6-0.9-4.7-3.5c0.5-1.5,2.9-2.4,5.2-2.4
		c1.3,0,2.6,0.2,3.5,0.7c-0.4,0.4-0.7,0.9-1,1.3h-0.7c0-0.6-0.9-1.3-2-1.3c-0.9,0-2,0.3-2.2,0.9c-0.5,1.5,5.7,0.7,4.8,3.5
		c-0.5,1.4-2.6,2.4-5.7,2.4c-1.2,0-2.4-0.2-3.3-0.6c0.3-0.5,0.6-0.9,0.9-1.4H168.4z"/>
	<path class="st1" d="M177.8,45.2c-0.1,0.3-0.3,0.6-0.6,0.9c-0.3,0.3-0.6,0.5-0.9,0.6c-0.3,0.1-0.7,0.2-1.1,0.2
		c-0.4,0-0.7-0.1-1.1-0.2c-0.3-0.2-0.7-0.4-0.9-0.6c-0.3-0.3-0.5-0.6-0.6-0.9c-0.1-0.3-0.2-0.7-0.2-1.1c0-0.4,0.1-0.7,0.2-1.1
		c0.1-0.4,0.4-0.7,0.6-0.9c0.3-0.3,0.6-0.5,0.9-0.6c0.3-0.1,0.7-0.2,1.1-0.2c0.4,0,0.7,0.1,1.1,0.2c0.3,0.1,0.7,0.3,0.9,0.6
		c0.3,0.3,0.5,0.6,0.6,0.9c0.1,0.3,0.2,0.7,0.2,1.1C178.1,44.5,178,44.8,177.8,45.2 M174.6,42.6h0.6c0.3,0,0.6,0,0.7,0.2
		c0.2,0.1,0.2,0.3,0.2,0.5c0,0.2-0.1,0.4-0.2,0.4c-0.1,0.1-0.4,0.1-0.7,0.1h-0.6V42.6z M176.6,43.9c0.2-0.2,0.2-0.4,0.2-0.7
		c0-0.3-0.1-0.6-0.4-0.8c-0.3-0.2-0.7-0.3-1.2-0.3h-1.4v3.7h0.7v-1.6h0.7l0.8,1.6h0.8l-0.8-1.7C176.3,44.1,176.5,44,176.6,43.9
		 M173.8,41.1c-0.4,0.2-0.8,0.5-1.1,0.9c-0.2,0.3-0.4,0.6-0.5,1c-0.1,0.3-0.2,0.7-0.2,1.1c0,0.4,0.1,0.8,0.2,1.2
		c0.2,0.4,0.4,0.7,0.7,1c0.3,0.3,0.7,0.6,1.1,0.7c0.4,0.2,0.8,0.3,1.2,0.3c0.4,0,0.8-0.1,1.2-0.2c0.4-0.2,0.8-0.4,1.1-0.7
		c0.3-0.3,0.5-0.6,0.7-1c0.2-0.4,0.2-0.8,0.2-1.3c0-0.5-0.1-1-0.3-1.4c-0.2-0.5-0.5-0.8-0.9-1.1c-0.3-0.2-0.6-0.4-0.9-0.5
		c-0.3-0.1-0.7-0.2-1.1-0.2C174.7,40.8,174.2,40.9,173.8,41.1"/>
</g>
</svg>
